# xmcd CD database file
#
# Track frame offsets:
#	150
#	43300
#	113567
#	152652
#
# Disc length: 2901 seconds
#
# Revision: 0
# Processed by: cddbd v1.5.2PL0 Copyright (c) Steve Scherf et al.
# Submitted via: CDex 1.51
#
DISCID=2a0b5304
DTITLE=sunny murray trio - live at moers festival
DYEAR=1979
DGENRE=Jazz
TTITLE0=sweet lovely
TTITLE1=german dilemma
TTITLE2=tree tops
TTITLE3=happiness tears
EXTD=YEAR: 1979
EXTT0=
EXTT1=
EXTT2=
EXTT3=
PLAYORDER=
